<svg width="192" height="48" viewBox="0 0 192 48" fill="none" xmlns="http://www.w3.org/2000/svg">
<path fill-rule="evenodd" clip-rule="evenodd" d="M45.75 0H2.25C1.65326 0 1.08097 0.237053 0.65901 0.65901C0.237053 1.08097 0 1.65326 0 2.25L0 45.75C0 46.3467 0.237053 46.919 0.65901 47.341C1.08097 47.7629 1.65326 48 2.25 48H45.75C46.3467 48 46.919 47.7629 47.341 47.341C47.7629 46.919 48 46.3467 48 45.75V2.25C48 1.65326 47.7629 1.08097 47.341 0.65901C46.919 0.237053 46.3467 0 45.75 0ZM43.5 43.5H4.5V4.5H43.5V43.5Z" fill="white"/>
<path d="M34.5 39C36.9853 39 39 36.9853 39 34.5C39 32.0147 36.9853 30 34.5 30C32.0147 30 30 32.0147 30 34.5C30 36.9853 32.0147 39 34.5 39Z" fill="white"/>
<path fill-rule="evenodd" clip-rule="evenodd" d="M18.0001 9.53229V11.4515C17.9995 11.5334 17.9803 11.6141 17.9439 11.6875C17.9075 11.7609 17.8549 11.825 17.7901 11.8751C16.6817 12.7295 15.6365 13.6628 14.6626 14.6676C13.6575 15.6413 12.7238 16.6861 11.8688 17.7938C11.8197 17.8585 11.7562 17.9109 11.6832 17.9467C11.6103 17.9824 11.53 18.0007 11.4488 18H9.5288C9.38857 18 9.25408 17.9443 9.15492 17.8452C9.05576 17.7461 9.00005 17.6116 9.00005 17.4715V9.53229C8.99905 9.46243 9.01202 9.39307 9.03819 9.32829C9.06436 9.2635 9.10321 9.2046 9.15246 9.15502C9.20171 9.10544 9.26037 9.06619 9.32499 9.03957C9.38962 9.01296 9.45891 8.99951 9.5288 9.00001H17.4713C17.5411 9.00001 17.6101 9.01381 17.6745 9.0406C17.7389 9.0674 17.7974 9.10666 17.8465 9.15614C17.8957 9.20562 17.9345 9.26432 17.9609 9.32888C17.9872 9.39344 18.0005 9.46257 18.0001 9.53229Z" fill="white"/>
<path d="M39 9.58499V17.4037C38.9991 17.5603 38.937 17.7103 38.827 17.8217C38.717 17.9331 38.5678 17.9971 38.4113 18C33.6113 18.1912 28.5975 20.8875 24.7425 24.75C20.8875 28.6125 18.1875 33.6112 18 38.415C17.9952 38.5712 17.93 38.7194 17.8181 38.8285C17.7062 38.9376 17.5563 38.9991 17.4 39H9.5813C9.50451 39.0005 9.42839 38.9857 9.3574 38.9564C9.2864 38.9271 9.22196 38.884 9.16783 38.8295C9.11371 38.7751 9.07099 38.7103 9.04218 38.6392C9.01337 38.568 8.99905 38.4918 9.00005 38.415C9.1913 31.125 12.8888 23.8537 18.375 18.375C23.8613 12.8962 31.125 9.19499 38.415 8.99999C38.4923 8.99846 38.569 9.01255 38.6407 9.0414C38.7124 9.07026 38.7775 9.1133 38.8321 9.16793C38.8867 9.22256 38.9298 9.28766 38.9586 9.35932C38.9875 9.43099 39.0016 9.50775 39 9.58499Z" fill="white"/>
<path d="M117 31.5H192V36H117V31.5Z" fill="white"/>
<path d="M66 31.5H88.5V36H66V31.5Z" fill="white"/>
<path d="M192 22.5224C191.891 15.1877 180.99 17.4103 180.99 14.277C180.99 13.325 181.781 12.7778 183.24 12.7778C184.973 12.7778 186.019 13.6586 186.199 14.9966H191.902C191.494 11.1025 188.625 8.28033 183.409 8.28033C178.136 8.28033 175.211 11.0313 175.211 14.3819C175.211 21.6079 186.188 19.318 186.188 22.4887C186.188 23.3695 185.359 24.0778 183.769 24.0778C182.07 24.0778 180.81 23.1596 180.664 21.7841H174.562C174.851 25.592 178.462 28.5303 183.84 28.5303C188.895 28.5191 192 25.9443 192 22.5224Z" fill="white"/>
<path d="M156.938 10.9087V0.09375H150.75V28.5H156.938V25.2666C157.593 26.299 158.503 27.1469 159.582 27.7293C160.66 28.3118 161.871 28.6092 163.099 28.5931C168.03 28.5931 172.125 24.2858 172.125 17.9907C172.125 11.6956 168.067 7.79477 163.099 7.79477C160.219 7.79477 158.055 9.11868 156.938 10.9087ZM165.69 18.0355C165.69 21.2203 163.601 23.0104 161.261 23.0104C158.921 23.0104 156.87 21.2576 156.87 18.069C156.87 14.8805 158.959 12.9561 161.25 12.9561C163.541 12.9561 165.69 14.8469 165.69 18.0355Z" fill="white"/>
<path d="M125.625 18.35C125.625 24.6763 129.547 28.5917 134.445 28.5917C137.445 28.5917 139.695 27.3341 140.82 25.5747V28.5H147V8.25002H140.812V11.2002C139.732 9.44079 137.467 8.07446 134.482 8.07446C129.547 8.07446 125.625 12.0237 125.625 18.35ZM140.674 18.3874C140.674 21.5843 138.623 23.3474 136.283 23.3474C133.943 23.3474 131.888 21.5506 131.888 18.35C131.888 15.1494 133.976 13.2515 136.283 13.2515C138.589 13.2515 140.674 15.1906 140.674 18.3874Z" fill="white"/>
<path d="M117 28.5H123V0H117V28.5Z" fill="white"/>
<path d="M91.5 17.2983C91.5 23.6487 95.3894 27.074 100.28 27.074C103.206 27.074 105.449 25.664 106.555 23.8969V25.9912C106.555 29.3751 104.597 30.6121 102.279 30.6121C100.172 30.6121 98.585 29.6195 98.1912 28.1042H92.0589C92.5914 32.9056 96.6384 36 102.561 36C109.447 36 112.5 32.1273 112.5 26.7469V8.15798H106.555V10.6395C105.486 8.83476 103.206 7.5 100.28 7.5C95.3894 7.5 91.5 10.9441 91.5 17.2983ZM106.416 17.9713C106.416 21.1823 104.384 23.0096 102.062 23.0096C99.7402 23.0096 97.7111 21.1296 97.7111 17.9337C97.7111 14.7378 99.7777 12.8766 102.062 12.8766C104.346 12.8766 106.416 14.7566 106.416 17.9713Z" fill="white"/>
<path d="M88.5 2.9947C88.5 3.78894 88.1839 4.55065 87.6213 5.11227C87.0587 5.67388 86.2956 5.98939 85.5 5.98939C84.7044 5.98939 83.9413 5.67388 83.3787 5.11227C82.8161 4.55065 82.5 3.78894 82.5 2.9947C82.5 2.20045 82.8161 1.43874 83.3787 0.877127C83.9413 0.315512 84.7044 0 85.5 0C86.2956 0 87.0587 0.315512 87.6213 0.877127C88.1839 1.43874 88.5 2.20045 88.5 2.9947Z" fill="white"/>
<path d="M82.5 28.5H88.5V8.25H82.5V28.5Z" fill="white"/>
<path d="M72.1818 19.23C72.1818 15.7725 74.1136 14.7675 77.0732 14.7675H78.75V8.25C75.9682 8.25 73.82 9.69 72.375 11.8125V8.25H66V28.5H72.1818V19.23Z" fill="white"/>
<path d="M91.105 45H92.2075L92.56 43.3275H93.7825C95.0575 43.3275 96.0925 42.45 96.0925 41.31C96.0925 40.44 95.4325 39.8475 94.45 39.8475H92.1775L91.105 45ZM92.77 42.315L93.0775 40.86H94.225C94.6825 40.86 94.975 41.07 94.975 41.385C94.975 41.865 94.45 42.315 93.8725 42.315H92.77ZM98.2612 45.09C99.5437 45.09 100.766 44.025 100.766 42.7425C100.766 41.7975 100.001 41.0325 98.9962 41.0325C97.7137 41.0325 96.4987 42.09 96.4987 43.38C96.4987 44.325 97.2562 45.09 98.2612 45.09ZM98.3437 44.1675C97.8862 44.1675 97.5262 43.8075 97.5262 43.35C97.5262 42.63 98.1862 41.955 98.9137 41.955C99.3787 41.955 99.7387 42.315 99.7387 42.7725C99.7387 43.485 99.0712 44.1675 98.3437 44.1675ZM102.171 45H103.154L104.399 42.5625L104.601 45H105.584L107.714 41.1225H106.611L105.374 43.5375L105.119 41.1225H104.211L102.936 43.5375L102.711 41.1225H101.661L102.171 45ZM109.742 43.4175C110.927 43.4475 111.632 42.9525 111.632 42.09C111.632 41.4675 111.025 41.0325 110.17 41.0325C108.88 41.0325 107.785 42.12 107.785 43.4625C107.785 44.43 108.452 45.09 109.487 45.09C110.125 45.09 110.747 44.88 111.16 44.52L110.56 43.74C110.267 43.98 109.877 44.1225 109.51 44.1225C109.045 44.1225 108.805 43.9125 108.805 43.455V43.4175H109.742ZM110.125 41.9925C110.38 41.9925 110.56 42.12 110.56 42.2925C110.56 42.5025 110.312 42.63 109.885 42.63H109.015C109.24 42.24 109.63 41.9925 110.125 41.9925ZM113.916 41.79L114.051 41.1225H112.956L112.146 45H113.241L113.638 43.1025C113.818 42.4275 114.456 41.955 115.236 41.955L115.356 41.0325C114.771 41.0325 114.253 41.3175 113.916 41.79ZM117.813 43.4175C118.998 43.4475 119.703 42.9525 119.703 42.09C119.703 41.4675 119.095 41.0325 118.24 41.0325C116.95 41.0325 115.855 42.12 115.855 43.4625C115.855 44.43 116.523 45.09 117.558 45.09C118.195 45.09 118.818 44.88 119.23 44.52L118.63 43.74C118.338 43.98 117.948 44.1225 117.58 44.1225C117.115 44.1225 116.875 43.9125 116.875 43.455V43.4175H117.813ZM118.195 41.9925C118.45 41.9925 118.63 42.12 118.63 42.2925C118.63 42.5025 118.383 42.63 117.955 42.63H117.085C117.31 42.24 117.7 41.9925 118.195 41.9925ZM124.214 39.7575L123.801 41.745C123.569 41.31 123.134 41.0325 122.601 41.0325C121.356 41.0325 120.396 42.21 120.396 43.515C120.396 44.4225 121.004 45.09 121.866 45.09C122.391 45.09 122.864 44.865 123.231 44.4975L123.126 45H124.221L125.309 39.7575H124.214ZM122.226 44.1675C121.776 44.1675 121.461 43.845 121.461 43.41C121.461 42.63 122.069 41.955 122.796 41.955C123.246 41.955 123.576 42.27 123.576 42.705C123.576 42.765 123.569 42.8325 123.561 42.8925L123.524 43.095C123.351 43.6875 122.834 44.1675 122.226 44.1675ZM131.042 41.0325C130.517 41.0325 130.044 41.2575 129.677 41.625L130.067 39.7575H128.972L127.884 45H128.979L129.107 44.3775C129.339 44.8125 129.774 45.09 130.307 45.09C131.552 45.09 132.512 43.9125 132.512 42.6C132.512 41.7 131.904 41.0325 131.042 41.0325ZM130.112 44.1675C129.662 44.1675 129.332 43.8525 129.332 43.4175C129.332 43.365 129.332 43.3125 129.339 43.2525L129.392 42.9975C129.572 42.42 130.089 41.955 130.689 41.955C131.132 41.955 131.447 42.2775 131.447 42.7125C131.447 43.4775 130.839 44.1675 130.112 44.1675ZM133.788 46.35C134.373 46.35 134.928 45.9975 135.378 45.2325L137.823 41.1225H136.683L135.138 43.845L134.695 41.1225H133.585L134.373 45.0375L134.163 45.2775C134.058 45.4275 133.825 45.5325 133.623 45.5325C133.495 45.5325 133.323 45.48 133.165 45.3825L132.843 46.0875C133.083 46.2375 133.458 46.35 133.788 46.35Z" fill="white"/>
<path d="M142.492 47.5H149.644V45.424H145.696L149.584 40.996V39.256H142.576V41.332H146.392L142.48 45.76L142.492 47.5ZM150.746 47.5H153.074V39.256H150.746V47.5ZM156.761 45.424V39.256H154.433V47.5H160.601V45.424H156.761ZM161.521 47.5H163.849V39.256H161.521V47.5ZM169.385 47.644C170.705 47.644 171.905 47.08 172.733 46.18L171.029 44.692C170.633 45.196 170.045 45.532 169.385 45.532C168.257 45.532 167.297 44.548 167.297 43.372C167.297 42.208 168.257 41.224 169.385 41.224C170.033 41.224 170.633 41.56 171.017 42.064L172.733 40.564C171.905 39.676 170.705 39.112 169.385 39.112C166.949 39.112 164.897 41.056 164.897 43.372C164.897 45.688 166.949 47.644 169.385 47.644ZM177.562 47.644C179.998 47.644 182.05 45.688 182.05 43.372C182.05 41.056 179.998 39.112 177.562 39.112C175.126 39.112 173.074 41.056 173.074 43.372C173.074 45.688 175.126 47.644 177.562 47.644ZM177.562 45.532C176.434 45.532 175.474 44.548 175.474 43.372C175.474 42.208 176.434 41.224 177.562 41.224C178.69 41.224 179.65 42.208 179.65 43.372C179.65 44.548 178.69 45.532 177.562 45.532ZM183.051 47.5H185.379V43.084L188.595 47.5H190.923V39.256H188.595V43.672L185.379 39.256H183.051V47.5Z" fill="white"/>
</svg>
