<svg width="256" height="64" viewBox="0 0 256 64" fill="none" xmlns="http://www.w3.org/2000/svg">
<g clip-path="url(#clip0_426_4053)">
<path fill-rule="evenodd" clip-rule="evenodd" d="M61 0H3C2.20435 0 1.44129 0.31607 0.87868 0.87868C0.31607 1.44129 0 2.20435 0 3L0 61C0 61.7956 0.31607 62.5587 0.87868 63.1213C1.44129 63.6839 2.20435 64 3 64H61C61.7956 64 62.5587 63.6839 63.1213 63.1213C63.6839 62.5587 64 61.7956 64 61V3C64 2.20435 63.6839 1.44129 63.1213 0.87868C62.5587 0.31607 61.7956 0 61 0ZM58 58H6V6H58V58Z" fill="white"/>
<path d="M46 52C49.3137 52 52 49.3137 52 46C52 42.6863 49.3137 40 46 40C42.6863 40 40 42.6863 40 46C40 49.3137 42.6863 52 46 52Z" fill="white"/>
<path fill-rule="evenodd" clip-rule="evenodd" d="M24 12.7097V15.2686C23.9993 15.3778 23.9737 15.4854 23.9252 15.5833C23.8766 15.6811 23.8065 15.7667 23.72 15.8334C22.2422 16.9726 20.8486 18.217 19.55 19.5568C18.2099 20.8551 16.965 22.2481 15.825 23.7251C15.7596 23.8114 15.6748 23.8811 15.5776 23.9289C15.4804 23.9766 15.3733 24.0009 15.265 24H12.705C12.518 24 12.3387 23.9257 12.2065 23.7936C12.0743 23.6614 12 23.4822 12 23.2953V12.7097C11.9987 12.6166 12.016 12.5241 12.0509 12.4377C12.0858 12.3513 12.1376 12.2728 12.2032 12.2067C12.2689 12.1406 12.3471 12.0883 12.4333 12.0528C12.5194 12.0173 12.6118 11.9993 12.705 12H23.295C23.388 12 23.4801 12.0184 23.566 12.0541C23.6518 12.0899 23.7298 12.1422 23.7953 12.2082C23.8608 12.2742 23.9127 12.3524 23.9478 12.4385C23.9829 12.5246 24.0007 12.6168 24 12.7097Z" fill="white"/>
<path d="M52 12.7799V23.2049C51.9987 23.4136 51.9159 23.6136 51.7693 23.7621C51.6226 23.9107 51.4237 23.996 51.215 23.9999C44.815 24.2549 38.13 27.8499 32.99 32.9999C27.85 38.1499 24.25 44.8149 24 51.2199C23.9935 51.4282 23.9066 51.6258 23.7574 51.7713C23.6082 51.9168 23.4084 51.9987 23.2 51.9999H12.775C12.6726 52.0006 12.5711 51.9808 12.4765 51.9418C12.3818 51.9028 12.2959 51.8453 12.2237 51.7726C12.1516 51.7 12.0946 51.6137 12.0562 51.5188C12.0178 51.4239 11.9987 51.3223 12 51.2199C12.255 41.4999 17.185 31.8049 24.5 24.4999C31.815 17.1949 41.5 12.2599 51.22 11.9999C51.323 11.9979 51.4253 12.0166 51.5209 12.0551C51.6164 12.0936 51.7032 12.151 51.7761 12.2238C51.8489 12.2967 51.9063 12.3835 51.9448 12.479C51.9833 12.5746 52.002 12.6769 52 12.7799Z" fill="white"/>
<path d="M156 42H256V48H156V42Z" fill="#0078D7"/>
<path d="M88 42H118V48H88V42Z" fill="#0078D7"/>
<path d="M256 30.03C255.855 20.2504 241.32 23.2138 241.32 19.0361C241.32 17.7668 242.375 17.0372 244.32 17.0372C246.63 17.0372 248.025 18.2115 248.265 19.9956H255.87C255.325 14.8034 251.5 11.0405 244.545 11.0405C237.515 11.0405 233.615 14.7085 233.615 19.176C233.615 28.8107 248.25 25.7574 248.25 29.985C248.25 31.1594 247.145 32.1038 245.025 32.1038C242.76 32.1038 241.08 30.8795 240.885 29.0455H232.75C233.135 34.1227 237.95 38.0405 245.12 38.0405C251.86 38.0255 256 34.5924 256 30.03Z" fill="white"/>
<path d="M209.25 14.545V0.125H201V38H209.25V33.6888C210.123 35.0653 211.337 36.1959 212.776 36.9724C214.214 37.749 215.829 38.1456 217.465 38.1242C224.04 38.1242 229.5 32.381 229.5 23.9876C229.5 15.5942 224.09 10.393 217.465 10.393C213.625 10.393 210.74 12.1582 209.25 14.545ZM220.92 24.0473C220.92 28.2937 218.135 30.6805 215.015 30.6805C211.895 30.6805 209.16 28.3434 209.16 24.092C209.16 19.8406 211.945 17.2749 215 17.2749C218.055 17.2749 220.92 19.7959 220.92 24.0473Z" fill="white"/>
<path d="M167.5 24.4666C167.5 32.9017 172.73 38.1222 179.26 38.1222C183.26 38.1222 186.26 36.4454 187.76 34.0995V37.9999H196V10.9999H187.75V14.9335C186.31 12.5876 183.29 10.7659 179.31 10.7659C172.73 10.7659 167.5 16.0315 167.5 24.4666ZM187.565 24.5165C187.565 28.779 184.83 31.1298 181.71 31.1298C178.59 31.1298 175.85 28.7341 175.85 24.4666C175.85 20.1992 178.635 17.6686 181.71 17.6686C184.785 17.6686 187.565 20.2541 187.565 24.5165Z" fill="white"/>
<path d="M156 38H164V0H156V38Z" fill="white"/>
<path d="M122 23.0644C122 31.5317 127.186 36.0987 133.707 36.0987C137.608 36.0987 140.598 34.2187 142.074 31.8625V34.6549C142.074 39.1668 139.463 40.8161 136.373 40.8161C133.562 40.8161 131.447 39.4926 130.922 37.4723H122.745C123.455 43.8741 128.851 48 136.748 48C145.929 48 150 42.8364 150 35.6625V10.8773H142.074V14.186C140.648 11.7797 137.608 10 133.707 10C127.186 10 122 14.5921 122 23.0644ZM141.889 23.9617C141.889 28.243 139.178 30.6794 136.083 30.6794C132.987 30.6794 130.281 28.1728 130.281 23.9116C130.281 19.6504 133.037 17.1689 136.083 17.1689C139.128 17.1689 141.889 19.6755 141.889 23.9617Z" fill="white"/>
<path d="M118 3.99293C118 5.05192 117.579 6.06754 116.828 6.81636C116.078 7.56518 115.061 7.98586 114 7.98586C112.939 7.98586 111.922 7.56518 111.172 6.81636C110.421 6.06754 110 5.05192 110 3.99293C110 2.93394 110.421 1.91832 111.172 1.1695C111.922 0.420683 112.939 0 114 0C115.061 0 116.078 0.420683 116.828 1.1695C117.579 1.91832 118 2.93394 118 3.99293Z" fill="white"/>
<path d="M110 38H118V11H110V38Z" fill="white"/>
<path d="M96.2424 25.64C96.2424 21.03 98.8182 19.69 102.764 19.69H105V11C101.291 11 98.4267 12.92 96.5 15.75V11H88V38H96.2424V25.64Z" fill="white"/>
<path d="M118.14 60L119.57 53.13H122.6C123.91 53.13 124.79 53.92 124.79 55.08C124.79 56.6 123.41 57.77 121.71 57.77H120.08L119.61 60H118.14ZM120.36 56.42H121.83C122.6 56.42 123.3 55.82 123.3 55.18C123.3 54.76 122.91 54.48 122.3 54.48H120.77L120.36 56.42ZM127.682 60.12C126.342 60.12 125.332 59.1 125.332 57.84C125.332 56.12 126.952 54.71 128.662 54.71C130.002 54.71 131.022 55.73 131.022 56.99C131.022 58.7 129.392 60.12 127.682 60.12ZM127.792 58.89C128.762 58.89 129.652 57.98 129.652 57.03C129.652 56.42 129.172 55.94 128.552 55.94C127.582 55.94 126.702 56.84 126.702 57.8C126.702 58.41 127.182 58.89 127.792 58.89ZM132.895 60L132.215 54.83H133.615L133.915 58.05L135.615 54.83H136.825L137.165 58.05L138.815 54.83H140.285L137.445 60H136.135L135.865 56.75L134.205 60H132.895ZM142.989 57.89H141.739V57.94C141.739 58.55 142.059 58.83 142.679 58.83C143.169 58.83 143.689 58.64 144.079 58.32L144.879 59.36C144.329 59.84 143.499 60.12 142.649 60.12C141.269 60.12 140.379 59.24 140.379 57.95C140.379 56.16 141.839 54.71 143.559 54.71C144.699 54.71 145.509 55.29 145.509 56.12C145.509 57.27 144.569 57.93 142.989 57.89ZM143.499 55.99C142.839 55.99 142.319 56.32 142.019 56.84H143.179C143.749 56.84 144.079 56.67 144.079 56.39C144.079 56.16 143.839 55.99 143.499 55.99ZM148.554 55.72C149.004 55.09 149.694 54.71 150.474 54.71L150.314 55.94C149.274 55.94 148.424 56.57 148.184 57.47L147.654 60H146.194L147.274 54.83H148.734L148.554 55.72ZM153.75 57.89H152.5V57.94C152.5 58.55 152.82 58.83 153.44 58.83C153.93 58.83 154.45 58.64 154.84 58.32L155.64 59.36C155.09 59.84 154.26 60.12 153.41 60.12C152.03 60.12 151.14 59.24 151.14 57.95C151.14 56.16 152.6 54.71 154.32 54.71C155.46 54.71 156.27 55.29 156.27 56.12C156.27 57.27 155.33 57.93 153.75 57.89ZM154.26 55.99C153.6 55.99 153.08 56.32 152.78 56.84H153.94C154.51 56.84 154.84 56.67 154.84 56.39C154.84 56.16 154.6 55.99 154.26 55.99ZM162.285 53.01H163.745L162.295 60H160.835L160.975 59.33C160.485 59.82 159.855 60.12 159.155 60.12C158.005 60.12 157.195 59.23 157.195 58.02C157.195 56.28 158.475 54.71 160.135 54.71C160.845 54.71 161.425 55.08 161.735 55.66L162.285 53.01ZM159.635 58.89C160.445 58.89 161.135 58.25 161.365 57.46L161.415 57.19C161.425 57.11 161.435 57.02 161.435 56.94C161.435 56.36 160.995 55.94 160.395 55.94C159.425 55.94 158.615 56.84 158.615 57.88C158.615 58.46 159.035 58.89 159.635 58.89ZM171.389 54.71C172.539 54.71 173.349 55.6 173.349 56.8C173.349 58.55 172.069 60.12 170.409 60.12C169.699 60.12 169.119 59.75 168.809 59.17L168.639 60H167.179L168.629 53.01H170.089L169.569 55.5C170.059 55.01 170.689 54.71 171.389 54.71ZM170.149 58.89C171.119 58.89 171.929 57.97 171.929 56.95C171.929 56.37 171.509 55.94 170.919 55.94C170.119 55.94 169.429 56.56 169.189 57.33L169.119 57.67C169.109 57.75 169.109 57.82 169.109 57.89C169.109 58.47 169.549 58.89 170.149 58.89ZM175.05 61.8C174.61 61.8 174.11 61.65 173.79 61.45L174.22 60.51C174.43 60.64 174.66 60.71 174.83 60.71C175.1 60.71 175.41 60.57 175.55 60.37L175.83 60.05L174.78 54.83H176.26L176.85 58.46L178.91 54.83H180.43L177.17 60.31C176.57 61.33 175.83 61.8 175.05 61.8Z" fill="white"/>
<path d="M186.656 63.5L186.64 61.18L191.856 55.276H186.768V52.508H196.112V54.828L190.928 60.732H196.192V63.5H186.656ZM198.141 63.5V52.508H201.245V63.5H198.141ZM206.641 60.732H211.761V63.5H203.537V52.508H206.641V60.732ZM213.468 63.5V52.508H216.572V63.5H213.468ZM224.433 63.692C221.185 63.692 218.449 61.084 218.449 57.996C218.449 54.908 221.185 52.316 224.433 52.316C226.193 52.316 227.793 53.068 228.897 54.252L226.609 56.252C226.097 55.58 225.297 55.132 224.433 55.132C222.929 55.132 221.649 56.444 221.649 57.996C221.649 59.564 222.929 60.876 224.433 60.876C225.313 60.876 226.097 60.428 226.625 59.756L228.897 61.74C227.793 62.94 226.193 63.692 224.433 63.692ZM235.815 63.692C232.567 63.692 229.831 61.084 229.831 57.996C229.831 54.908 232.567 52.316 235.815 52.316C239.063 52.316 241.799 54.908 241.799 57.996C241.799 61.084 239.063 63.692 235.815 63.692ZM235.815 60.876C237.319 60.876 238.599 59.564 238.599 57.996C238.599 56.444 237.319 55.132 235.815 55.132C234.311 55.132 233.031 56.444 233.031 57.996C233.031 59.564 234.311 60.876 235.815 60.876ZM243.614 63.5V52.508H246.718L251.006 58.396V52.508H254.11V63.5H251.006L246.718 57.612V63.5H243.614Z" fill="white"/>
</g>
<defs>
<clipPath id="clip0_426_4053">
<rect width="256" height="64" fill="white"/>
</clipPath>
</defs>
</svg>
